<?xml version="1.0" encoding="utf-8" standalone="no"?>
<!DOCTYPE svg PUBLIC "-//W3C//DTD SVG 1.1//EN"
  "http://www.w3.org/Graphics/SVG/1.1/DTD/svg11.dtd">
<svg height="280.5275pt" version="1.1" viewBox="0 0 594.4 280.5275" width="594.4pt" xmlns="http://www.w3.org/2000/svg" xmlns:xlink="http://www.w3.org/1999/xlink">
 <metadata>
  <rdf:RDF xmlns:cc="http://creativecommons.org/ns#" xmlns:dc="http://purl.org/dc/elements/1.1/" xmlns:rdf="http://www.w3.org/1999/02/22-rdf-syntax-ns#">
   <cc:Work>
    <dc:type rdf:resource="http://purl.org/dc/dcmitype/StillImage"/>
    <dc:date>2021-06-10T14:21:16.835037</dc:date>
    <dc:format>image/svg+xml</dc:format>
    <dc:creator>
     <cc:Agent>
      <dc:title>Matplotlib v3.4.2, https://matplotlib.org/</dc:title>
     </cc:Agent>
    </dc:creator>
   </cc:Work>
  </rdf:RDF>
 </metadata>
 <defs>
  <style type="text/css">*{stroke-linecap:butt;stroke-linejoin:round;}</style>
 </defs>
 <g id="figure_1">
  <g id="patch_1">
   <path d="M 0 280.5275 
L 594.4 280.5275 
L 594.4 0 
L 0 0 
z
" style="fill:none;"/>
  </g>
  <g id="axes_1">
   <g id="patch_2">
    <path d="M 29.2 240.061875 
L 282.836364 240.061875 
L 282.836364 22.621875 
L 29.2 22.621875 
z
" style="fill:#ffffff;"/>
   </g>
   <g id="matplotlib.axis_1">
    <g id="xtick_1">
     <g id="line2d_1">
      <defs>
       <path d="M 0 0 
L 0 3.5 
" id="m713357e7c4" style="stroke:#000000;stroke-width:0.8;"/>
      </defs>
      <g>
       <use style="stroke:#000000;stroke-width:0.8;" x="40.728926" xlink:href="#m713357e7c4" y="240.061875"/>
      </g>
     </g>
     <g id="text_1">
      <!-- 0 -->
      <g transform="translate(38.228926 254.210312)scale(0.1 -0.1)">
       <defs>
        <path d="M 1600 4225 
Q 1250 4225 1012 3687 
Q 775 3150 775 2250 
Q 775 1300 1012 775 
Q 1250 250 1600 250 
Q 1975 250 2187 775 
Q 2400 1300 2400 2250 
Q 2400 3150 2200 3687 
Q 2000 4225 1600 4225 
z
M 1600 50 
Q 1050 50 675 625 
Q 300 1200 300 2250 
Q 300 3225 662 3825 
Q 1025 4425 1600 4425 
Q 2150 4425 2512 3850 
Q 2875 3275 2875 2250 
Q 2875 1225 2512 637 
Q 2150 50 1600 50 
z
" id="SimSun-30" transform="scale(0.015625)"/>
       </defs>
       <use xlink:href="#SimSun-30"/>
      </g>
     </g>
    </g>
    <g id="xtick_2">
     <g id="line2d_2">
      <g>
       <use style="stroke:#000000;stroke-width:0.8;" x="86.937044" xlink:href="#m713357e7c4" y="240.061875"/>
      </g>
     </g>
     <g id="text_2">
      <!-- 100 -->
      <g transform="translate(79.437044 254.210312)scale(0.1 -0.1)">
       <defs>
        <path d="M 1825 4450 
L 1825 650 
Q 1825 450 1950 350 
Q 2075 250 2300 250 
L 2550 250 
L 2550 100 
L 725 100 
L 725 250 
L 950 250 
Q 1200 250 1312 350 
Q 1425 450 1425 650 
L 1425 3675 
Q 1425 3775 1362 3837 
Q 1300 3900 1175 3900 
L 725 3900 
L 725 4050 
L 950 4050 
Q 1250 4050 1437 4150 
Q 1625 4250 1725 4450 
L 1825 4450 
z
" id="SimSun-31" transform="scale(0.015625)"/>
       </defs>
       <use xlink:href="#SimSun-31"/>
       <use x="50" xlink:href="#SimSun-30"/>
       <use x="100" xlink:href="#SimSun-30"/>
      </g>
     </g>
    </g>
    <g id="xtick_3">
     <g id="line2d_3">
      <g>
       <use style="stroke:#000000;stroke-width:0.8;" x="133.145163" xlink:href="#m713357e7c4" y="240.061875"/>
      </g>
     </g>
     <g id="text_3">
      <!-- 200 -->
      <g transform="translate(125.645163 254.210312)scale(0.1 -0.1)">
       <defs>
        <path d="M 2325 3325 
Q 2325 3775 2125 4012 
Q 1925 4250 1525 4250 
Q 1225 4250 1012 4087 
Q 800 3925 800 3675 
Q 800 3525 900 3425 
Q 975 3325 975 3225 
Q 975 3100 912 3037 
Q 850 2975 725 2975 
Q 575 2975 487 3062 
Q 400 3150 400 3350 
Q 400 3875 775 4150 
Q 1150 4425 1575 4425 
Q 2175 4425 2462 4125 
Q 2750 3825 2750 3375 
Q 2750 3075 2612 2775 
Q 2475 2475 2175 2200 
Q 1450 1500 1062 1062 
Q 675 625 600 475 
L 2075 475 
Q 2300 475 2450 650 
Q 2600 825 2650 1175 
L 2800 1175 
L 2650 100 
L 325 100 
L 325 425 
Q 450 650 737 1000 
Q 1025 1350 1500 1825 
Q 1925 2250 2125 2625 
Q 2325 3000 2325 3325 
z
" id="SimSun-32" transform="scale(0.015625)"/>
       </defs>
       <use xlink:href="#SimSun-32"/>
       <use x="50" xlink:href="#SimSun-30"/>
       <use x="100" xlink:href="#SimSun-30"/>
      </g>
     </g>
    </g>
    <g id="xtick_4">
     <g id="line2d_4">
      <g>
       <use style="stroke:#000000;stroke-width:0.8;" x="179.353282" xlink:href="#m713357e7c4" y="240.061875"/>
      </g>
     </g>
     <g id="text_4">
      <!-- 300 -->
      <g transform="translate(171.853282 254.210312)scale(0.1 -0.1)">
       <defs>
        <path d="M 2800 1250 
Q 2800 775 2450 412 
Q 2100 50 1475 50 
Q 1025 50 700 300 
Q 375 550 375 875 
Q 375 1025 475 1137 
Q 575 1250 675 1250 
Q 825 1250 887 1137 
Q 950 1025 950 950 
Q 950 825 900 750 
Q 850 650 850 575 
Q 850 425 1037 325 
Q 1225 225 1450 225 
Q 1900 225 2125 487 
Q 2350 750 2350 1300 
Q 2350 1750 2112 2025 
Q 1875 2300 1225 2300 
L 1225 2475 
Q 1725 2475 1962 2712 
Q 2200 2950 2200 3375 
Q 2200 3725 2012 3987 
Q 1825 4250 1425 4250 
Q 1250 4250 1050 4162 
Q 850 4075 850 3875 
Q 850 3675 900 3625 
Q 950 3575 950 3500 
Q 950 3375 900 3300 
Q 850 3225 725 3225 
Q 625 3225 537 3300 
Q 450 3375 450 3575 
Q 450 3950 775 4187 
Q 1100 4425 1525 4425 
Q 2025 4425 2325 4112 
Q 2625 3800 2625 3450 
Q 2625 3075 2437 2812 
Q 2250 2550 1850 2425 
Q 2400 2225 2600 1900 
Q 2800 1575 2800 1250 
z
" id="SimSun-33" transform="scale(0.015625)"/>
       </defs>
       <use xlink:href="#SimSun-33"/>
       <use x="50" xlink:href="#SimSun-30"/>
       <use x="100" xlink:href="#SimSun-30"/>
      </g>
     </g>
    </g>
    <g id="xtick_5">
     <g id="line2d_5">
      <g>
       <use style="stroke:#000000;stroke-width:0.8;" x="225.5614" xlink:href="#m713357e7c4" y="240.061875"/>
      </g>
     </g>
     <g id="text_5">
      <!-- 400 -->
      <g transform="translate(218.0614 254.210312)scale(0.1 -0.1)">
       <defs>
        <path d="M 2300 575 
Q 2300 400 2400 325 
Q 2500 250 2675 250 
L 2900 250 
L 2900 100 
L 1250 100 
L 1250 250 
L 1525 250 
Q 1725 250 1812 325 
Q 1900 400 1900 575 
L 1900 1400 
L 225 1400 
L 225 1525 
L 2050 4425 
L 2300 4425 
L 2300 1550 
L 2975 1550 
L 2975 1400 
L 2300 1400 
L 2300 575 
z
M 1875 3800 
L 450 1550 
L 1900 1550 
L 1900 3800 
L 1875 3800 
z
" id="SimSun-34" transform="scale(0.015625)"/>
       </defs>
       <use xlink:href="#SimSun-34"/>
       <use x="50" xlink:href="#SimSun-30"/>
       <use x="100" xlink:href="#SimSun-30"/>
      </g>
     </g>
    </g>
    <g id="xtick_6">
     <g id="line2d_6">
      <g>
       <use style="stroke:#000000;stroke-width:0.8;" x="271.769519" xlink:href="#m713357e7c4" y="240.061875"/>
      </g>
     </g>
     <g id="text_6">
      <!-- 500 -->
      <g transform="translate(264.269519 254.210312)scale(0.1 -0.1)">
       <defs>
        <path d="M 1725 2850 
Q 2200 2850 2500 2487 
Q 2800 2125 2800 1525 
Q 2800 850 2487 450 
Q 2175 50 1525 50 
Q 1075 50 725 312 
Q 375 575 375 950 
Q 375 1100 462 1212 
Q 550 1325 700 1325 
Q 850 1325 900 1225 
Q 950 1125 950 1050 
Q 950 900 875 825 
Q 800 725 800 625 
Q 800 425 1037 325 
Q 1275 225 1550 225 
Q 1950 225 2162 550 
Q 2375 875 2375 1475 
Q 2375 1975 2187 2287 
Q 2000 2600 1625 2600 
Q 1350 2600 1150 2500 
Q 950 2400 775 2075 
L 550 2100 
L 675 4375 
L 2725 4375 
L 2650 4000 
L 850 4000 
L 750 2350 
Q 1000 2700 1237 2775 
Q 1475 2850 1725 2850 
z
" id="SimSun-35" transform="scale(0.015625)"/>
       </defs>
       <use xlink:href="#SimSun-35"/>
       <use x="50" xlink:href="#SimSun-30"/>
       <use x="100" xlink:href="#SimSun-30"/>
      </g>
     </g>
    </g>
    <g id="text_7">
     <!-- 循环次数 -->
     <g transform="translate(126.018182 271.393906)scale(0.15 -0.15)">
      <defs>
       <path d="M 3650 725 
L 3650 -25 
L 5250 -25 
L 5250 725 
L 3650 725 
z
M 1775 -600 
Q 2000 -200 2212 400 
Q 2425 1000 2487 1950 
Q 2550 2900 2550 3625 
Q 2525 4350 2525 4750 
L 2875 4500 
Q 4175 4750 4637 4900 
Q 5100 5050 5275 5200 
L 5675 4725 
Q 5400 4725 4900 4662 
Q 4400 4600 2875 4375 
L 2875 3550 
L 4200 3550 
Q 4225 4075 4200 4425 
L 4775 4175 
L 4575 4025 
L 4550 3550 
L 5375 3550 
L 5675 3850 
L 6125 3400 
L 4550 3400 
L 4525 2600 
L 5200 2600 
L 5400 2825 
L 5775 2525 
L 5600 2400 
L 5600 450 
Q 5600 -100 5625 -475 
L 5250 -625 
L 5250 -175 
L 3650 -175 
L 3650 -500 
L 3300 -625 
Q 3325 -25 3325 1212 
Q 3325 2450 3300 2800 
L 3650 2600 
L 4175 2600 
L 4200 3400 
L 3575 3400 
Q 3300 3400 3075 3325 
L 2875 3525 
Q 2900 2150 2725 1187 
Q 2550 225 1850 -650 
L 1775 -600 
z
M 3650 2450 
L 3650 1725 
L 5250 1725 
L 5250 2450 
L 3650 2450 
z
M 3650 1575 
L 3650 875 
L 5250 875 
L 5250 1575 
L 3650 1575 
z
M 1625 5150 
L 2075 4750 
Q 1825 4650 1425 4200 
Q 1000 3750 375 3275 
L 325 3350 
Q 825 3850 1187 4387 
Q 1550 4925 1625 5150 
z
M 1875 3925 
L 2350 3550 
L 2100 3450 
Q 1775 2975 1525 2625 
L 1525 -525 
L 1150 -650 
Q 1175 -50 1175 350 
L 1175 2250 
Q 750 1750 300 1425 
L 250 1500 
Q 500 1750 887 2275 
Q 1275 2800 1525 3237 
Q 1775 3675 1875 3925 
z
" id="SimSun-5faa" transform="scale(0.015625)"/>
       <path d="M 300 4600 
L 1900 4600 
L 2200 4900 
L 2625 4525 
L 1675 4525 
L 1675 3000 
L 1950 3000 
L 2225 3275 
L 2625 2850 
L 1675 2850 
L 1675 1400 
L 2550 1775 
L 2575 1675 
Q 975 800 525 475 
L 250 925 
Q 775 1050 1325 1275 
L 1325 2850 
L 1225 2850 
Q 900 2850 625 2775 
L 400 3000 
L 1325 3000 
L 1325 4450 
L 1125 4450 
Q 800 4450 525 4375 
L 300 4600 
z
M 4250 3000 
L 4250 700 
Q 4250 25 4275 -375 
L 3875 -575 
L 3900 25 
Q 3900 500 3900 2975 
Q 3150 1625 2125 900 
L 2075 975 
Q 3475 2400 4100 4525 
L 3400 4525 
Q 3075 4525 2800 4450 
L 2575 4675 
L 5300 4675 
L 5675 5000 
L 6075 4525 
L 4500 4525 
Q 4300 3925 4075 3375 
L 4400 3175 
L 4250 3000 
z
M 4575 2800 
Q 5525 2150 5700 1912 
Q 5875 1675 5875 1475 
Q 5875 1325 5800 1187 
Q 5725 1050 5700 1050 
Q 5625 1050 5575 1200 
Q 5450 1450 5237 1825 
Q 5025 2200 4525 2725 
L 4575 2800 
z
" id="SimSun-73af" transform="scale(0.015625)"/>
       <path d="M 4875 2725 
L 5275 3600 
L 3225 3600 
Q 3025 3250 2800 2887 
Q 2575 2525 2075 2025 
L 2000 2100 
Q 2575 2825 2925 3750 
Q 3275 4675 3350 5225 
L 3950 4925 
Q 3750 4825 3650 4600 
Q 3550 4375 3275 3750 
L 5250 3750 
L 5525 4025 
L 5975 3550 
Q 5725 3500 5550 3350 
Q 5375 3200 4950 2675 
L 4875 2725 
z
M 4050 2900 
Q 3900 1225 3175 437 
Q 2450 -350 1450 -650 
L 1400 -575 
Q 2675 0 3175 912 
Q 3675 1825 3700 3400 
L 4275 3100 
L 4125 2975 
Q 4300 1700 4812 912 
Q 5325 125 6150 -175 
L 6125 -250 
Q 5750 -225 5575 -500 
Q 4950 -25 4537 825 
Q 4125 1675 4050 2900 
z
M 750 4950 
Q 1275 4675 1487 4450 
Q 1700 4225 1700 4075 
Q 1700 3925 1587 3775 
Q 1475 3625 1450 3625 
Q 1350 3625 1275 3950 
Q 1150 4400 700 4875 
L 750 4950 
z
M 425 1650 
Q 600 1625 750 1625 
Q 975 1625 1100 1725 
Q 1225 1825 2275 4300 
L 2375 4250 
Q 1400 1700 1350 1600 
Q 1300 1500 1300 1187 
Q 1300 875 1375 350 
Q 1450 -200 1212 -175 
Q 975 -150 925 -25 
Q 875 100 875 200 
Q 875 300 925 575 
Q 1000 975 975 1187 
Q 950 1400 425 1550 
L 425 1650 
z
" id="SimSun-6b21" transform="scale(0.015625)"/>
       <path d="M 1875 1525 
Q 1675 1200 1500 900 
Q 1825 825 2275 725 
Q 2500 975 2725 1525 
L 1875 1525 
z
M 850 4900 
Q 1325 4600 1425 4450 
Q 1525 4300 1525 4225 
Q 1525 4100 1437 3975 
Q 1350 3850 1300 3850 
Q 1225 3850 1150 4100 
Q 1050 4450 775 4850 
L 850 4900 
z
M 3000 4975 
L 3450 4675 
Q 3250 4625 3100 4425 
Q 2925 4225 2525 3825 
L 2450 3875 
Q 2925 4625 3000 4975 
z
M 1875 5250 
L 2425 5000 
L 2225 4825 
L 2225 3675 
L 2850 3675 
L 3125 3950 
L 3550 3525 
L 2225 3525 
L 2225 3300 
Q 2800 3175 2937 3062 
Q 3075 2950 3075 2775 
Q 3075 2700 3050 2587 
Q 3025 2475 2975 2475 
Q 2925 2475 2800 2650 
Q 2600 2925 2225 3175 
L 2225 2400 
L 1925 2200 
L 2275 2050 
Q 2150 2000 1950 1675 
L 2725 1675 
L 2900 1900 
L 3275 1575 
L 3050 1450 
Q 2800 875 2600 650 
Q 3000 550 3137 437 
Q 3275 325 3275 150 
Q 3275 -25 3200 -25 
Q 3125 -25 3025 75 
Q 2750 275 2400 425 
Q 1525 -275 325 -500 
L 300 -425 
Q 1450 -50 2100 550 
Q 1600 725 1125 800 
Q 1225 950 1525 1525 
L 1200 1525 
Q 875 1525 600 1450 
L 375 1675 
L 1575 1675 
Q 1675 1925 1775 2275 
L 1900 2225 
L 1900 3250 
Q 1225 2475 350 2050 
L 300 2125 
Q 1225 2775 1700 3525 
L 1250 3525 
Q 925 3525 650 3450 
L 425 3675 
L 1900 3675 
Q 1900 4575 1875 5250 
z
M 3925 3525 
Q 4050 2075 4525 1100 
Q 4925 1950 5025 3525 
L 3925 3525 
z
M 4050 5250 
L 4625 4925 
Q 4425 4850 4325 4625 
Q 4225 4400 3950 3675 
L 5375 3675 
L 5675 3975 
L 6125 3525 
L 5400 3525 
Q 5250 1675 4750 775 
Q 5325 75 6100 -100 
L 6100 -200 
Q 5625 -275 5600 -500 
Q 4950 -50 4525 525 
Q 3700 -275 2550 -650 
L 2500 -575 
Q 3650 -50 4325 800 
Q 3850 1975 3825 3375 
Q 3575 2725 3100 2150 
L 3025 2200 
Q 3625 3200 4050 5250 
z
" id="SimSun-6570" transform="scale(0.015625)"/>
      </defs>
      <use xlink:href="#SimSun-5faa"/>
      <use x="100" xlink:href="#SimSun-73af"/>
      <use x="200" xlink:href="#SimSun-6b21"/>
      <use x="300" xlink:href="#SimSun-6570"/>
     </g>
    </g>
   </g>
   <g id="matplotlib.axis_2">
    <g id="ytick_1">
     <g id="line2d_7">
      <defs>
       <path d="M 0 0 
L -3.5 0 
" id="m877ccb74a9" style="stroke:#000000;stroke-width:0.8;"/>
      </defs>
      <g>
       <use style="stroke:#000000;stroke-width:0.8;" x="29.2" xlink:href="#m877ccb74a9" y="240.061875"/>
      </g>
     </g>
     <g id="text_8">
      <!-- -40 -->
      <g transform="translate(7.2 243.636094)scale(0.1 -0.1)">
       <defs>
        <path d="M 200 2225 
L 200 2450 
L 2975 2450 
L 2975 2225 
L 200 2225 
z
" id="SimSun-2d" transform="scale(0.015625)"/>
       </defs>
       <use xlink:href="#SimSun-2d"/>
       <use x="50" xlink:href="#SimSun-34"/>
       <use x="100" xlink:href="#SimSun-30"/>
      </g>
     </g>
    </g>
    <g id="ytick_2">
     <g id="line2d_8">
      <g>
       <use style="stroke:#000000;stroke-width:0.8;" x="29.2" xlink:href="#m877ccb74a9" y="203.821875"/>
      </g>
     </g>
     <g id="text_9">
      <!-- -30 -->
      <g transform="translate(7.2 207.396094)scale(0.1 -0.1)">
       <use xlink:href="#SimSun-2d"/>
       <use x="50" xlink:href="#SimSun-33"/>
       <use x="100" xlink:href="#SimSun-30"/>
      </g>
     </g>
    </g>
    <g id="ytick_3">
     <g id="line2d_9">
      <g>
       <use style="stroke:#000000;stroke-width:0.8;" x="29.2" xlink:href="#m877ccb74a9" y="167.581875"/>
      </g>
     </g>
     <g id="text_10">
      <!-- -20 -->
      <g transform="translate(7.2 171.156094)scale(0.1 -0.1)">
       <use xlink:href="#SimSun-2d"/>
       <use x="50" xlink:href="#SimSun-32"/>
       <use x="100" xlink:href="#SimSun-30"/>
      </g>
     </g>
    </g>
    <g id="ytick_4">
     <g id="line2d_10">
      <g>
       <use style="stroke:#000000;stroke-width:0.8;" x="29.2" xlink:href="#m877ccb74a9" y="131.341875"/>
      </g>
     </g>
     <g id="text_11">
      <!-- -10 -->
      <g transform="translate(7.2 134.916094)scale(0.1 -0.1)">
       <use xlink:href="#SimSun-2d"/>
       <use x="50" xlink:href="#SimSun-31"/>
       <use x="100" xlink:href="#SimSun-30"/>
      </g>
     </g>
    </g>
    <g id="ytick_5">
     <g id="line2d_11">
      <g>
       <use style="stroke:#000000;stroke-width:0.8;" x="29.2" xlink:href="#m877ccb74a9" y="95.101875"/>
      </g>
     </g>
     <g id="text_12">
      <!-- 0 -->
      <g transform="translate(17.2 98.676094)scale(0.1 -0.1)">
       <use xlink:href="#SimSun-30"/>
      </g>
     </g>
    </g>
    <g id="ytick_6">
     <g id="line2d_12">
      <g>
       <use style="stroke:#000000;stroke-width:0.8;" x="29.2" xlink:href="#m877ccb74a9" y="58.861875"/>
      </g>
     </g>
     <g id="text_13">
      <!-- 10 -->
      <g transform="translate(12.2 62.436094)scale(0.1 -0.1)">
       <use xlink:href="#SimSun-31"/>
       <use x="50" xlink:href="#SimSun-30"/>
      </g>
     </g>
    </g>
    <g id="ytick_7">
     <g id="line2d_13">
      <g>
       <use style="stroke:#000000;stroke-width:0.8;" x="29.2" xlink:href="#m877ccb74a9" y="22.621875"/>
      </g>
     </g>
     <g id="text_14">
      <!-- 20 -->
      <g transform="translate(12.2 26.196094)scale(0.1 -0.1)">
       <use xlink:href="#SimSun-32"/>
       <use x="50" xlink:href="#SimSun-30"/>
      </g>
     </g>
    </g>
   </g>
   <g id="line2d_14">
    <path clip-path="url(#p6801a11aee)" d="M 40.809843 281.5275 
L 41.191007 180.319172 
L 41.653088 88.105224 
L 42.115169 23.665131 
L 42.404644 -1 
M 43.952995 -1 
L 43.963494 -0.3241 
L 45.349737 141.378797 
L 45.811819 160.832377 
L 46.2739 148.969308 
L 46.735981 144.881014 
L 47.198062 110.205893 
L 47.660143 119.915251 
L 48.122225 135.333367 
L 48.584306 108.515465 
L 49.046387 95.757335 
L 49.970549 142.865656 
L 50.432631 134.849645 
L 50.894712 132.582377 
L 51.818874 105.395786 
L 52.743036 57.421743 
L 53.205118 55.199332 
L 53.667199 67.048909 
L 54.12928 89.154384 
L 54.591361 95.357819 
L 55.053442 120.827369 
L 55.515524 127.444537 
L 56.439686 157.533026 
L 57.363848 191.201877 
L 57.82593 190.825134 
L 58.288011 198.573403 
L 58.750092 200.035032 
L 59.212173 176.412593 
L 60.136335 84.371648 
L 60.598417 82.255133 
L 61.060498 90.087158 
L 62.446741 155.78982 
L 63.370904 185.445778 
L 63.832985 219.040009 
L 64.295066 198.428277 
L 64.757147 187.546713 
L 65.219229 179.305182 
L 65.68131 188.103359 
L 66.143391 186.552234 
L 67.067553 207.274723 
L 67.529634 215.298505 
L 67.991716 200.62339 
L 68.453797 191.23768 
L 68.915878 175.010413 
L 69.377959 169.004551 
L 69.84004 144.219932 
L 70.302122 155.057958 
L 70.764203 158.454357 
L 71.226284 146.305975 
L 71.688365 114.880363 
L 72.150446 119.576334 
L 72.612528 112.780405 
L 73.53669 107.577987 
L 73.998771 103.587082 
L 74.460852 97.959512 
L 74.922933 85.704758 
L 75.385015 86.088657 
L 75.847096 107.313399 
L 76.309177 109.334405 
L 76.771258 99.540403 
L 77.233339 125.915057 
L 77.695421 141.705283 
L 78.157502 117.200058 
L 78.619583 103.925179 
L 79.081664 100.279078 
L 79.543745 89.045597 
L 80.005827 90.667296 
L 80.467908 76.13256 
L 80.929989 88.462005 
L 81.39207 107.701767 
L 81.854151 92.508597 
L 82.316232 85.813375 
L 82.778314 102.798241 
L 83.240395 103.336986 
L 83.702476 96.050636 
L 84.164557 99.777801 
L 84.626638 116.65951 
L 85.08872 118.75443 
L 85.550801 128.390831 
L 86.012882 123.712673 
L 86.474963 114.207902 
L 86.937044 98.898567 
L 87.399126 79.232697 
L 87.861207 78.180752 
L 88.323288 71.959537 
L 88.785369 58.316791 
L 89.24745 73.268214 
L 89.709531 101.452863 
L 90.171613 108.251419 
L 91.095775 125.676832 
L 91.557856 124.905311 
L 92.019937 112.706574 
L 92.482019 117.036522 
L 92.9441 115.358366 
L 93.406181 124.586889 
L 93.868262 110.37336 
L 94.330343 114.718272 
L 95.254506 159.927097 
L 95.716587 154.612438 
L 96.178668 146.419844 
L 96.640749 146.273966 
L 98.026993 128.676514 
L 98.489074 130.16275 
L 98.951155 128.489014 
L 99.413236 131.661249 
L 99.875318 138.527748 
L 100.337399 139.179684 
L 100.79948 135.68479 
L 101.261561 109.664426 
L 101.723642 95.404891 
L 102.185724 104.543331 
L 102.647805 102.260047 
L 103.109886 107.37842 
L 103.571967 98.558055 
L 104.034048 100.402554 
L 104.496129 90.954369 
L 104.958211 91.196604 
L 105.420292 83.231773 
L 105.882373 109.356401 
L 106.806535 129.656849 
L 107.268617 155.052957 
L 107.730698 174.023556 
L 108.65486 178.397158 
L 109.116941 137.337543 
L 109.579023 129.714014 
L 110.041104 134.369277 
L 110.965266 128.525949 
L 111.427347 159.458066 
L 111.889428 144.428 
L 112.35151 145.617587 
L 112.813591 153.677876 
L 113.275672 148.967215 
L 113.737753 134.949246 
L 114.199834 135.023388 
L 114.661916 113.557252 
L 115.123997 138.166917 
L 116.048159 99.229518 
L 116.51024 97.988562 
L 116.972322 94.008984 
L 117.434403 83.324065 
L 118.358565 123.71066 
L 118.820646 116.09996 
L 119.282727 118.849183 
L 119.744809 148.019587 
L 120.20689 150.627997 
L 120.668971 167.334975 
L 121.131052 140.362013 
L 122.055215 124.465748 
L 122.517296 106.37784 
L 122.979377 107.896378 
L 123.441458 121.838015 
L 123.903539 95.987681 
L 124.36562 84.878 
L 124.827702 94.457233 
L 125.289783 109.110417 
L 125.751864 112.326906 
L 126.213945 128.100109 
L 126.676026 151.187343 
L 127.138108 130.737814 
L 127.600189 115.526911 
L 128.06227 121.67525 
L 128.524351 102.650485 
L 128.986432 92.8209 
L 129.448514 55.798287 
L 129.910595 66.208514 
L 130.834757 76.79922 
L 131.296838 68.518471 
L 132.221001 110.900419 
L 132.683082 121.859627 
L 133.145163 138.266416 
L 133.607244 135.825463 
L 134.069325 101.48546 
L 134.531407 95.492536 
L 134.993488 78.297064 
L 135.91765 99.828989 
L 136.379731 92.374061 
L 136.841813 81.004641 
L 137.303894 94.411403 
L 137.765975 97.812839 
L 138.228056 116.970814 
L 138.690137 111.342929 
L 139.152218 99.228636 
L 139.6143 82.820132 
L 140.076381 104.434693 
L 140.538462 94.243789 
L 141.000543 128.78983 
L 141.462624 142.750052 
L 141.924706 144.036273 
L 142.386787 153.732243 
L 142.848868 149.329781 
L 143.310949 148.65214 
L 143.77303 143.579625 
L 144.235112 152.284707 
L 144.697193 131.416271 
L 145.159274 91.821788 
L 146.083436 51.823079 
L 146.545517 70.018011 
L 147.007599 59.73681 
L 147.931761 79.20976 
L 148.393842 99.434578 
L 148.855923 113.923747 
L 149.318005 120.896774 
L 149.780086 129.853623 
L 150.704248 101.97891 
L 151.166329 106.324683 
L 151.628411 129.390509 
L 152.090492 121.683524 
L 152.552573 116.816936 
L 153.476735 154.452715 
L 153.938816 180.96641 
L 154.400898 172.377154 
L 154.862979 171.102374 
L 155.32506 148.366888 
L 156.249222 120.079653 
L 156.711304 123.653307 
L 157.173385 111.372789 
L 157.635466 82.474781 
L 158.097547 71.919363 
L 158.559628 74.837456 
L 159.483791 120.956326 
L 159.945872 113.248798 
L 160.407953 122.693774 
L 160.870034 115.156053 
L 161.332115 120.127855 
L 161.794197 128.093465 
L 162.256278 126.949522 
L 162.718359 135.070725 
L 163.642521 95.007274 
L 164.104603 90.644844 
L 164.566684 111.286114 
L 165.490846 76.253953 
L 165.952927 72.84956 
L 166.87709 67.724494 
L 167.339171 73.009833 
L 167.801252 71.029603 
L 168.263333 91.251847 
L 168.725414 76.212039 
L 169.187496 79.776374 
L 169.649577 84.2739 
L 170.111658 105.10835 
L 170.573739 86.88268 
L 171.03582 95.732893 
L 171.497902 88.143927 
L 171.959983 98.324741 
L 172.422064 98.491878 
L 173.346226 114.458962 
L 174.270389 121.812405 
L 174.73247 119.141292 
L 175.194551 113.973915 
L 175.656632 129.768074 
L 176.118713 121.844156 
L 176.580795 119.543984 
L 177.042876 115.746971 
L 177.504957 115.13649 
L 177.967038 108.267949 
L 178.429119 110.861345 
L 178.891201 108.722768 
L 179.353282 90.981718 
L 179.815363 115.608088 
L 180.277444 125.28302 
L 180.739525 129.885011 
L 181.201607 139.024337 
L 181.663688 152.746191 
L 182.125769 154.060985 
L 182.58785 151.256969 
L 183.049931 140.663794 
L 183.512012 146.888782 
L 183.974094 127.681161 
L 184.436175 115.709205 
L 184.898256 93.221807 
L 185.360337 108.98827 
L 185.822418 100.16504 
L 186.2845 88.739285 
L 186.746581 85.422673 
L 187.208662 99.576934 
L 187.670743 98.297054 
L 188.132824 100.811502 
L 188.594906 111.575418 
L 189.056987 140.880846 
L 189.519068 135.475506 
L 189.981149 162.692412 
L 190.44323 142.891726 
L 190.905311 141.698073 
L 192.291555 83.380906 
L 192.753636 75.797593 
L 193.215717 71.07005 
L 193.677799 68.593128 
L 194.13988 72.999395 
L 194.601961 91.114779 
L 195.988205 107.449897 
L 196.450286 122.173367 
L 196.912367 128.581616 
L 197.374448 143.317966 
L 197.836529 140.767609 
L 198.29861 143.916987 
L 198.760692 145.924382 
L 199.222773 147.220646 
L 200.609016 73.026953 
L 201.071098 70.997729 
L 201.533179 80.420591 
L 201.99526 73.83727 
L 202.457341 73.887527 
L 202.919422 80.618779 
L 203.381504 79.463282 
L 203.843585 82.22959 
L 204.305666 88.949084 
L 204.767747 90.606529 
L 205.229828 79.80738 
L 205.691909 78.199035 
L 206.153991 84.266338 
L 206.616072 107.142158 
L 207.078153 103.692743 
L 207.540234 111.569645 
L 208.002315 110.45624 
L 208.464397 105.126665 
L 208.926478 102.063774 
L 209.388559 102.771012 
L 209.85064 107.640651 
L 210.774802 84.081541 
L 211.236884 98.178156 
L 211.698965 115.876289 
L 212.623127 137.740027 
L 213.085208 138.780737 
L 213.54729 152.820277 
L 214.009371 135.544567 
L 214.933533 132.174152 
L 215.395614 123.627196 
L 216.319777 84.801088 
L 216.781858 103.013738 
L 217.70602 97.247717 
L 218.168101 98.107425 
L 218.630183 98.199173 
L 219.092264 101.373819 
L 219.554345 88.457056 
L 220.016426 85.940444 
L 220.478507 88.499851 
L 220.940589 88.279242 
L 221.40267 96.163853 
L 221.864751 98.955734 
L 222.788913 107.038936 
L 223.250995 108.507079 
L 224.175157 97.538372 
L 224.637238 77.687749 
L 225.099319 100.707764 
L 225.5614 107.373069 
L 226.023482 137.694177 
L 226.485563 150.297761 
L 226.947644 159.356525 
L 227.409725 154.574232 
L 227.871806 146.032541 
L 228.333888 143.43522 
L 228.795969 130.190871 
L 229.25805 99.374986 
L 229.720131 88.846219 
L 230.182212 82.334801 
L 230.644294 109.010227 
L 231.106375 112.167288 
L 231.568456 117.983383 
L 232.030537 118.765752 
L 232.492618 122.832067 
L 233.416781 125.718487 
L 234.340943 161.019791 
L 234.803024 147.461911 
L 235.265105 154.432483 
L 235.727187 125.277422 
L 236.189268 104.957152 
L 236.651349 72.088509 
L 237.11343 54.782716 
L 237.575511 53.747081 
L 238.037593 45.772616 
L 238.499674 49.597305 
L 238.961755 50.247409 
L 239.423836 84.105694 
L 239.885917 104.817749 
L 240.81008 114.32998 
L 241.272161 92.71878 
L 241.734242 91.19343 
L 242.196323 87.144252 
L 242.658404 95.069494 
L 243.120486 92.547023 
L 244.044648 97.505281 
L 244.96881 111.832196 
L 245.430892 107.445543 
L 245.892973 108.41633 
L 246.355054 121.074939 
L 246.817135 115.811869 
L 247.279216 118.951734 
L 247.741297 112.780095 
L 248.203379 111.711338 
L 248.66546 108.174515 
L 249.127541 111.319268 
L 249.589622 100.4252 
L 250.051703 105.204928 
L 250.513785 99.706565 
L 251.437947 120.988726 
L 251.900028 147.090541 
L 252.362109 147.744439 
L 252.824191 150.964997 
L 253.286272 144.023417 
L 253.748353 140.012544 
L 254.210434 130.014853 
L 255.134596 98.423239 
L 255.596678 91.664267 
L 256.058759 89.811617 
L 256.52084 91.700141 
L 256.982921 82.676364 
L 257.445002 100.214702 
L 258.369165 85.031335 
L 259.755408 70.057151 
L 260.21749 73.930499 
L 260.679571 83.51241 
L 261.141652 81.269672 
L 261.603733 77.675963 
L 262.065814 88.774076 
L 262.527895 96.272864 
L 262.989977 115.917003 
L 263.452058 112.957288 
L 263.914139 121.017502 
L 264.37622 117.514071 
L 264.838301 114.974572 
L 265.300383 121.235611 
L 265.762464 114.340157 
L 266.224545 116.072893 
L 266.686626 84.683546 
L 267.148707 73.376192 
L 267.610789 66.247187 
L 268.07287 53.213721 
L 268.997032 57.218343 
L 269.459113 61.574674 
L 269.921194 67.944824 
L 270.845357 84.917605 
L 271.307438 94.615744 
L 271.307438 94.615744 
" style="fill:none;stroke:#000000;stroke-linecap:square;stroke-width:1.5;"/>
   </g>
   <g id="patch_3">
    <path d="M 29.2 240.061875 
L 29.2 22.621875 
" style="fill:none;stroke:#000000;stroke-linecap:square;stroke-linejoin:miter;stroke-width:0.8;"/>
   </g>
   <g id="patch_4">
    <path d="M 282.836364 240.061875 
L 282.836364 22.621875 
" style="fill:none;stroke:#000000;stroke-linecap:square;stroke-linejoin:miter;stroke-width:0.8;"/>
   </g>
   <g id="patch_5">
    <path d="M 29.2 240.061875 
L 282.836364 240.061875 
" style="fill:none;stroke:#000000;stroke-linecap:square;stroke-linejoin:miter;stroke-width:0.8;"/>
   </g>
   <g id="patch_6">
    <path d="M 29.2 22.621875 
L 282.836364 22.621875 
" style="fill:none;stroke:#000000;stroke-linecap:square;stroke-linejoin:miter;stroke-width:0.8;"/>
   </g>
   <g id="text_15">
    <!-- 生成器损失 -->
    <g transform="translate(126.018182 16.621875)scale(0.12 -0.12)">
     <defs>
      <path d="M 1575 4825 
L 2150 4500 
Q 1900 4375 1550 3575 
L 3025 3575 
Q 3025 4725 3000 5250 
L 3600 5000 
L 3400 4825 
L 3400 3575 
L 4825 3575 
L 5200 3950 
L 5675 3425 
L 3400 3425 
L 3400 1875 
L 4525 1875 
L 4925 2250 
L 5375 1725 
L 3400 1725 
L 3400 -75 
L 5200 -75 
L 5600 325 
L 6100 -225 
L 1125 -225 
Q 800 -225 525 -300 
L 300 -75 
L 3025 -75 
L 3025 1725 
L 2075 1725 
Q 1750 1725 1475 1650 
L 1250 1875 
L 3025 1875 
L 3025 3425 
L 1500 3425 
Q 925 2350 475 1900 
L 400 1950 
Q 825 2600 1125 3375 
Q 1425 4150 1575 4825 
z
" id="SimSun-751f" transform="scale(0.015625)"/>
      <path d="M 4325 5075 
Q 4850 4775 5025 4612 
Q 5200 4450 5162 4287 
Q 5125 4125 5025 4062 
Q 4925 4000 4900 4000 
Q 4800 4000 4750 4200 
Q 4675 4475 4250 5000 
L 4325 5075 
z
M 5625 100 
L 5925 1175 
L 6025 1150 
Q 5925 375 5925 125 
Q 5925 -125 6050 -350 
Q 6100 -450 6000 -450 
Q 5825 -450 5350 -275 
Q 4875 -100 4250 675 
Q 3475 -125 2550 -525 
L 2525 -425 
Q 3525 225 4050 950 
Q 3550 1875 3400 3650 
L 1425 3650 
L 1400 2450 
L 2550 2450 
L 2775 2700 
L 3150 2350 
L 2925 2175 
Q 2850 675 2725 437 
Q 2600 200 2250 50 
Q 2175 400 1575 625 
L 1575 725 
Q 2050 650 2237 625 
Q 2425 600 2475 837 
Q 2525 1075 2575 2300 
L 1400 2300 
Q 1325 225 350 -600 
L 300 -525 
Q 950 400 987 1462 
Q 1025 2525 1025 3075 
Q 1025 3625 1000 4025 
L 1450 3800 
L 3375 3800 
Q 3300 4625 3250 5150 
L 3900 4900 
L 3725 4700 
Q 3725 4300 3775 3800 
L 5150 3800 
L 5500 4150 
L 6000 3650 
L 3775 3650 
Q 3925 2000 4300 1325 
Q 4500 1625 4700 2100 
Q 4900 2575 5100 3175 
L 5625 2775 
L 5400 2650 
Q 4975 1625 4525 975 
Q 5050 350 5625 100 
z
" id="SimSun-6210" transform="scale(0.015625)"/>
      <path d="M 1475 4625 
L 1475 3650 
L 2475 3650 
L 2475 4625 
L 1475 4625 
z
M 1125 3075 
Q 1150 3575 1150 4062 
Q 1150 4550 1125 5000 
L 1475 4775 
L 2450 4775 
L 2625 5000 
L 3025 4675 
L 2800 4525 
Q 2800 3625 2825 3350 
L 2475 3200 
L 2475 3500 
L 1475 3500 
L 1475 3250 
L 1125 3075 
z
M 5250 1200 
Q 5250 150 5275 -225 
L 4900 -375 
L 4900 25 
L 3775 25 
L 3775 -350 
L 3425 -475 
Q 3450 50 3450 562 
Q 3450 1075 3425 1550 
L 3775 1375 
L 4825 1375 
L 4875 1425 
Q 4025 1900 3600 2525 
L 2850 2525 
Q 2200 1750 1425 1375 
L 2475 1375 
L 2650 1600 
L 3025 1300 
L 2850 1150 
Q 2850 100 2875 -225 
L 2525 -350 
L 2525 25 
L 1550 25 
L 1550 -300 
L 1200 -425 
Q 1225 0 1225 475 
Q 1225 950 1225 1275 
Q 725 1100 275 1000 
L 250 1075 
Q 950 1325 1475 1662 
Q 2000 2000 2450 2525 
L 1250 2525 
Q 925 2525 650 2450 
L 425 2675 
L 2525 2675 
Q 2750 3025 2925 3400 
L 3400 3075 
Q 3150 2975 2925 2675 
L 4500 2675 
Q 4375 3025 4000 3275 
L 4050 3350 
Q 4525 3225 4650 3125 
Q 4775 3025 4775 2950 
Q 4775 2825 4650 2675 
L 5150 2675 
L 5500 3025 
L 6000 2525 
L 3750 2525 
Q 4175 2125 4737 1850 
Q 5300 1575 6125 1550 
L 6125 1450 
Q 5725 1400 5650 1100 
L 5275 1225 
L 5250 1200 
z
M 1550 1225 
L 1550 175 
L 2525 175 
L 2525 1225 
L 1550 1225 
z
M 3775 1225 
L 3775 175 
L 4900 175 
L 4900 1225 
L 3775 1225 
z
M 3925 4625 
L 3925 3650 
L 4900 3650 
L 4900 4625 
L 3925 4625 
z
M 3575 3200 
Q 3600 3650 3600 4112 
Q 3600 4575 3575 5000 
L 3925 4775 
L 4875 4775 
L 5050 5000 
L 5425 4700 
L 5225 4525 
Q 5225 3700 5250 3375 
L 4900 3250 
L 4900 3500 
L 3925 3500 
L 3925 3325 
L 3575 3200 
z
" id="SimSun-5668" transform="scale(0.015625)"/>
      <path d="M 1450 3725 
Q 1450 4700 1425 5175 
L 2050 4900 
L 1800 4725 
L 1800 3725 
L 2050 3725 
L 2325 4000 
L 2750 3575 
L 1800 3575 
L 1800 2625 
L 2525 3050 
L 2575 2975 
L 1800 2400 
L 1800 50 
Q 1800 -325 1275 -550 
Q 1325 -225 575 -25 
L 575 75 
Q 1050 25 1262 12 
Q 1475 0 1450 375 
L 1450 2150 
Q 725 1650 625 1425 
L 250 1850 
Q 525 1925 1450 2475 
L 1450 3575 
L 750 3575 
L 475 3525 
L 275 3725 
L 1450 3725 
z
M 3050 3275 
Q 3075 3700 3075 4087 
Q 3075 4475 3050 4925 
L 3400 4725 
L 4975 4725 
L 5150 4925 
L 5525 4650 
L 5325 4500 
Q 5325 3850 5350 3475 
L 5000 3325 
L 5000 3550 
L 3400 3550 
L 3400 3400 
L 3050 3275 
z
M 3400 4575 
L 3400 3700 
L 5000 3700 
L 5000 4575 
L 3400 4575 
z
M 5575 2575 
Q 5575 1300 5600 825 
L 5250 700 
L 5250 2650 
L 3150 2650 
L 3150 725 
L 2800 575 
Q 2825 1175 2825 1862 
Q 2825 2550 2800 3000 
L 3150 2800 
L 5200 2800 
L 5375 3050 
L 5800 2750 
L 5575 2575 
z
M 3925 2375 
L 4500 2100 
L 4300 1950 
Q 4200 825 3650 237 
Q 3100 -350 1875 -600 
L 1850 -525 
Q 2700 -250 3175 162 
Q 3650 575 3787 1150 
Q 3925 1725 3925 2375 
z
M 4175 700 
Q 5175 375 5525 200 
Q 5875 25 5875 -187 
Q 5875 -400 5825 -475 
Q 5775 -550 5750 -550 
Q 5675 -550 5525 -375 
Q 5325 -125 4975 125 
Q 4625 375 4150 625 
L 4175 700 
z
" id="SimSun-635f" transform="scale(0.015625)"/>
      <path d="M 950 2525 
L 875 2575 
Q 1425 3600 1550 4675 
L 2125 4375 
Q 1900 4275 1700 3750 
L 3000 3750 
L 3000 4550 
Q 3000 4850 2975 5225 
L 3625 4925 
L 3375 4750 
L 3375 3750 
L 4575 3750 
L 4925 4100 
L 5425 3600 
L 3375 3600 
Q 3325 2875 3250 2325 
L 5025 2325 
L 5425 2725 
L 5975 2175 
L 3525 2175 
Q 4050 1050 4775 512 
Q 5500 -25 6075 -100 
L 6075 -200 
Q 5600 -275 5500 -550 
Q 4925 -225 4325 450 
Q 3725 1125 3400 2175 
L 3225 2175 
Q 2950 1025 2287 400 
Q 1625 -225 450 -600 
L 400 -525 
Q 1400 -100 1975 475 
Q 2550 1050 2850 2175 
L 1300 2175 
Q 975 2175 700 2100 
L 475 2325 
L 2875 2325 
Q 2975 2975 3000 3600 
L 1650 3600 
Q 1300 2925 950 2525 
z
" id="SimSun-5931" transform="scale(0.015625)"/>
     </defs>
     <use xlink:href="#SimSun-751f"/>
     <use x="100" xlink:href="#SimSun-6210"/>
     <use x="200" xlink:href="#SimSun-5668"/>
     <use x="300" xlink:href="#SimSun-635f"/>
     <use x="400" xlink:href="#SimSun-5931"/>
    </g>
   </g>
  </g>
  <g id="axes_2">
   <g id="patch_7">
    <path d="M 333.563636 240.061875 
L 587.2 240.061875 
L 587.2 22.621875 
L 333.563636 22.621875 
z
" style="fill:#ffffff;"/>
   </g>
   <g id="matplotlib.axis_3">
    <g id="xtick_7">
     <g id="line2d_15">
      <g>
       <use style="stroke:#000000;stroke-width:0.8;" x="345.092562" xlink:href="#m713357e7c4" y="240.061875"/>
      </g>
     </g>
     <g id="text_16">
      <!-- 0 -->
      <g transform="translate(342.592562 254.210312)scale(0.1 -0.1)">
       <use xlink:href="#SimSun-30"/>
      </g>
     </g>
    </g>
    <g id="xtick_8">
     <g id="line2d_16">
      <g>
       <use style="stroke:#000000;stroke-width:0.8;" x="391.300681" xlink:href="#m713357e7c4" y="240.061875"/>
      </g>
     </g>
     <g id="text_17">
      <!-- 100 -->
      <g transform="translate(383.800681 254.210312)scale(0.1 -0.1)">
       <use xlink:href="#SimSun-31"/>
       <use x="50" xlink:href="#SimSun-30"/>
       <use x="100" xlink:href="#SimSun-30"/>
      </g>
     </g>
    </g>
    <g id="xtick_9">
     <g id="line2d_17">
      <g>
       <use style="stroke:#000000;stroke-width:0.8;" x="437.508799" xlink:href="#m713357e7c4" y="240.061875"/>
      </g>
     </g>
     <g id="text_18">
      <!-- 200 -->
      <g transform="translate(430.008799 254.210312)scale(0.1 -0.1)">
       <use xlink:href="#SimSun-32"/>
       <use x="50" xlink:href="#SimSun-30"/>
       <use x="100" xlink:href="#SimSun-30"/>
      </g>
     </g>
    </g>
    <g id="xtick_10">
     <g id="line2d_18">
      <g>
       <use style="stroke:#000000;stroke-width:0.8;" x="483.716918" xlink:href="#m713357e7c4" y="240.061875"/>
      </g>
     </g>
     <g id="text_19">
      <!-- 300 -->
      <g transform="translate(476.216918 254.210312)scale(0.1 -0.1)">
       <use xlink:href="#SimSun-33"/>
       <use x="50" xlink:href="#SimSun-30"/>
       <use x="100" xlink:href="#SimSun-30"/>
      </g>
     </g>
    </g>
    <g id="xtick_11">
     <g id="line2d_19">
      <g>
       <use style="stroke:#000000;stroke-width:0.8;" x="529.925037" xlink:href="#m713357e7c4" y="240.061875"/>
      </g>
     </g>
     <g id="text_20">
      <!-- 400 -->
      <g transform="translate(522.425037 254.210312)scale(0.1 -0.1)">
       <use xlink:href="#SimSun-34"/>
       <use x="50" xlink:href="#SimSun-30"/>
       <use x="100" xlink:href="#SimSun-30"/>
      </g>
     </g>
    </g>
    <g id="xtick_12">
     <g id="line2d_20">
      <g>
       <use style="stroke:#000000;stroke-width:0.8;" x="576.133156" xlink:href="#m713357e7c4" y="240.061875"/>
      </g>
     </g>
     <g id="text_21">
      <!-- 500 -->
      <g transform="translate(568.633156 254.210312)scale(0.1 -0.1)">
       <use xlink:href="#SimSun-35"/>
       <use x="50" xlink:href="#SimSun-30"/>
       <use x="100" xlink:href="#SimSun-30"/>
      </g>
     </g>
    </g>
    <g id="text_22">
     <!-- 循环次数 -->
     <g transform="translate(430.381818 271.393906)scale(0.15 -0.15)">
      <use xlink:href="#SimSun-5faa"/>
      <use x="100" xlink:href="#SimSun-73af"/>
      <use x="200" xlink:href="#SimSun-6b21"/>
      <use x="300" xlink:href="#SimSun-6570"/>
     </g>
    </g>
   </g>
   <g id="matplotlib.axis_4">
    <g id="ytick_8">
     <g id="line2d_21">
      <g>
       <use style="stroke:#000000;stroke-width:0.8;" x="333.563636" xlink:href="#m877ccb74a9" y="240.061875"/>
      </g>
     </g>
     <g id="text_23">
      <!-- -40 -->
      <g transform="translate(311.563636 243.636094)scale(0.1 -0.1)">
       <use xlink:href="#SimSun-2d"/>
       <use x="50" xlink:href="#SimSun-34"/>
       <use x="100" xlink:href="#SimSun-30"/>
      </g>
     </g>
    </g>
    <g id="ytick_9">
     <g id="line2d_22">
      <g>
       <use style="stroke:#000000;stroke-width:0.8;" x="333.563636" xlink:href="#m877ccb74a9" y="203.821875"/>
      </g>
     </g>
     <g id="text_24">
      <!-- -35 -->
      <g transform="translate(311.563636 207.396094)scale(0.1 -0.1)">
       <use xlink:href="#SimSun-2d"/>
       <use x="50" xlink:href="#SimSun-33"/>
       <use x="100" xlink:href="#SimSun-35"/>
      </g>
     </g>
    </g>
    <g id="ytick_10">
     <g id="line2d_23">
      <g>
       <use style="stroke:#000000;stroke-width:0.8;" x="333.563636" xlink:href="#m877ccb74a9" y="167.581875"/>
      </g>
     </g>
     <g id="text_25">
      <!-- -30 -->
      <g transform="translate(311.563636 171.156094)scale(0.1 -0.1)">
       <use xlink:href="#SimSun-2d"/>
       <use x="50" xlink:href="#SimSun-33"/>
       <use x="100" xlink:href="#SimSun-30"/>
      </g>
     </g>
    </g>
    <g id="ytick_11">
     <g id="line2d_24">
      <g>
       <use style="stroke:#000000;stroke-width:0.8;" x="333.563636" xlink:href="#m877ccb74a9" y="131.341875"/>
      </g>
     </g>
     <g id="text_26">
      <!-- -25 -->
      <g transform="translate(311.563636 134.916094)scale(0.1 -0.1)">
       <use xlink:href="#SimSun-2d"/>
       <use x="50" xlink:href="#SimSun-32"/>
       <use x="100" xlink:href="#SimSun-35"/>
      </g>
     </g>
    </g>
    <g id="ytick_12">
     <g id="line2d_25">
      <g>
       <use style="stroke:#000000;stroke-width:0.8;" x="333.563636" xlink:href="#m877ccb74a9" y="95.101875"/>
      </g>
     </g>
     <g id="text_27">
      <!-- -20 -->
      <g transform="translate(311.563636 98.676094)scale(0.1 -0.1)">
       <use xlink:href="#SimSun-2d"/>
       <use x="50" xlink:href="#SimSun-32"/>
       <use x="100" xlink:href="#SimSun-30"/>
      </g>
     </g>
    </g>
    <g id="ytick_13">
     <g id="line2d_26">
      <g>
       <use style="stroke:#000000;stroke-width:0.8;" x="333.563636" xlink:href="#m877ccb74a9" y="58.861875"/>
      </g>
     </g>
     <g id="text_28">
      <!-- -15 -->
      <g transform="translate(311.563636 62.436094)scale(0.1 -0.1)">
       <use xlink:href="#SimSun-2d"/>
       <use x="50" xlink:href="#SimSun-31"/>
       <use x="100" xlink:href="#SimSun-35"/>
      </g>
     </g>
    </g>
    <g id="ytick_14">
     <g id="line2d_27">
      <g>
       <use style="stroke:#000000;stroke-width:0.8;" x="333.563636" xlink:href="#m877ccb74a9" y="22.621875"/>
      </g>
     </g>
     <g id="text_29">
      <!-- -10 -->
      <g transform="translate(311.563636 26.196094)scale(0.1 -0.1)">
       <use xlink:href="#SimSun-2d"/>
       <use x="50" xlink:href="#SimSun-31"/>
       <use x="100" xlink:href="#SimSun-30"/>
      </g>
     </g>
    </g>
   </g>
   <g id="line2d_28">
    <path clip-path="url(#pf170b07407)" d="M 347.897383 281.5275 
L 348.32713 214.170751 
L 348.789211 234.127097 
L 349.251293 232.623074 
L 349.713374 230.021013 
L 350.175455 223.967042 
L 350.637536 238.94271 
L 351.099617 233.161197 
L 351.561699 233.667273 
L 352.02378 214.395212 
L 352.947942 196.337109 
L 353.410023 202.771223 
L 353.872105 195.410071 
L 354.334186 191.313084 
L 355.258348 173.623102 
L 355.720429 159.438317 
L 356.18251 164.162395 
L 356.644592 158.405672 
L 357.106673 160.590101 
L 357.568754 153.886756 
L 358.030835 163.478808 
L 358.492916 146.646637 
L 358.954998 146.136557 
L 359.417079 135.556534 
L 359.87916 134.163698 
L 360.803322 115.195753 
L 361.265404 93.198601 
L 362.189566 123.225947 
L 362.651647 149.491615 
L 363.113728 161.102559 
L 364.037891 166.293993 
L 364.499972 172.739748 
L 365.424134 158.601309 
L 365.886215 133.869463 
L 366.348297 116.967743 
L 366.810378 104.979648 
L 368.196621 125.805125 
L 368.658703 155.268505 
L 369.120784 121.431752 
L 369.582865 128.248263 
L 370.507027 93.261964 
L 370.969108 98.901668 
L 371.43119 85.022777 
L 371.893271 85.899219 
L 372.355352 91.732162 
L 372.817433 90.508327 
L 373.279514 86.869397 
L 373.741596 109.259602 
L 374.203677 146.74316 
L 374.665758 104.21156 
L 375.127839 114.996023 
L 376.052002 112.819142 
L 376.514083 122.16681 
L 376.976164 120.040001 
L 377.438245 127.065574 
L 377.900326 122.231857 
L 378.362407 119.467078 
L 378.824489 105.72021 
L 379.28657 111.592205 
L 379.748651 100.56134 
L 380.210732 96.146893 
L 380.672813 99.169144 
L 381.134895 126.004641 
L 381.596976 106.752293 
L 382.059057 100.076651 
L 382.521138 97.068777 
L 382.983219 89.973594 
L 383.445301 101.786524 
L 383.907382 117.35819 
L 384.831544 97.458492 
L 385.293625 104.44726 
L 386.217788 132.511547 
L 386.679869 153.662923 
L 387.14195 122.703378 
L 387.604031 116.897584 
L 388.066112 115.850859 
L 388.528194 117.29491 
L 388.990275 133.392864 
L 389.452356 134.418383 
L 389.914437 137.864311 
L 390.8386 163.023876 
L 391.300681 150.655476 
L 391.762762 152.017205 
L 392.224843 157.480817 
L 392.686924 122.125802 
L 394.535249 42.20367 
L 394.99733 34.253267 
L 395.459411 44.554143 
L 395.921493 62.270974 
L 396.383574 74.673537 
L 396.845655 82.4616 
L 397.307736 103.367052 
L 397.769817 130.680975 
L 398.231899 119.345389 
L 398.69398 121.743984 
L 399.156061 101.555709 
L 399.618142 96.894349 
L 400.080223 95.1904 
L 400.542304 98.843765 
L 401.004386 89.894565 
L 401.466467 83.713364 
L 402.390629 60.072643 
L 402.85271 57.596767 
L 403.776873 61.306698 
L 404.238954 61.291387 
L 404.701035 53.631318 
L 405.163116 68.315155 
L 405.625198 90.025267 
L 406.087279 103.964911 
L 406.54936 97.084404 
L 407.473522 90.184564 
L 408.397685 109.58468 
L 408.859766 111.108584 
L 409.321847 136.461459 
L 409.783928 136.278722 
L 410.246009 125.452544 
L 411.170172 112.245629 
L 412.094334 70.976407 
L 413.018496 38.905773 
L 413.480578 54.760739 
L 414.40474 75.260141 
L 414.866821 110.839528 
L 415.328902 119.310935 
L 415.790984 119.149785 
L 416.253065 126.723802 
L 416.715146 126.200921 
L 417.177227 137.520208 
L 418.10139 126.480243 
L 418.563471 113.868946 
L 419.025552 114.194035 
L 419.487633 109.157091 
L 420.411795 83.173559 
L 420.873877 86.26731 
L 421.335958 82.049252 
L 421.798039 84.79591 
L 422.722201 98.650561 
L 423.184283 111.011086 
L 423.646364 116.672412 
L 424.108445 110.01151 
L 424.570526 116.06695 
L 425.032607 113.961435 
L 425.494689 108.193252 
L 425.95677 95.291185 
L 426.418851 101.666867 
L 426.880932 99.174564 
L 427.343013 90.19052 
L 427.805094 92.755401 
L 428.267176 97.486283 
L 428.729257 100.899304 
L 429.653419 65.095745 
L 430.1155 68.374735 
L 430.577582 51.727382 
L 431.039663 59.043769 
L 431.501744 55.688556 
L 431.963825 54.433449 
L 432.425906 64.580876 
L 432.887988 69.743009 
L 433.350069 79.017203 
L 433.81215 104.286949 
L 434.274231 103.943753 
L 434.736312 85.752174 
L 435.198393 86.628878 
L 435.660475 75.195888 
L 436.122556 84.818435 
L 436.584637 102.249289 
L 437.046718 103.119772 
L 437.508799 100.114262 
L 437.970881 99.020939 
L 438.432962 100.963165 
L 438.895043 97.557116 
L 439.357124 111.372891 
L 439.819205 93.614129 
L 440.281287 69.467502 
L 440.743368 57.811447 
L 441.205449 40.286008 
L 441.66753 63.170123 
L 442.129611 56.479486 
L 442.591692 62.172334 
L 443.053774 62.484333 
L 443.515855 66.177077 
L 443.977936 77.618449 
L 444.440017 65.491447 
L 444.902098 86.773761 
L 445.36418 58.371247 
L 445.826261 59.135059 
L 446.288342 50.270538 
L 446.750423 44.856006 
L 447.212504 52.659215 
L 447.674586 52.988337 
L 448.136667 66.83436 
L 448.598748 55.570083 
L 449.52291 84.843185 
L 449.984991 85.695461 
L 450.447073 103.138173 
L 450.909154 82.126231 
L 451.371235 91.265448 
L 451.833316 88.368417 
L 452.757479 76.802411 
L 453.21956 77.898058 
L 453.681641 71.78998 
L 454.143722 68.98003 
L 454.605803 86.63368 
L 455.529966 89.622522 
L 455.992047 84.167828 
L 456.454128 89.9341 
L 456.916209 87.510559 
L 457.840372 72.291772 
L 458.302453 43.420342 
L 458.764534 28.045962 
L 459.226615 20.345126 
L 460.150778 73.794196 
L 460.612859 77.539844 
L 461.537021 134.690362 
L 461.999102 148.569243 
L 462.923265 163.273394 
L 463.385346 157.373594 
L 464.309508 95.311016 
L 464.771589 101.99722 
L 465.233671 111.335277 
L 466.157833 86.871506 
L 466.619914 94.863044 
L 467.081995 95.184005 
L 467.544077 80.559069 
L 468.006158 90.893444 
L 468.468239 83.868122 
L 468.93032 73.964542 
L 469.392401 52.836047 
L 469.854483 55.930347 
L 470.316564 73.635941 
L 470.778645 79.103283 
L 471.240726 91.575601 
L 471.702807 90.712435 
L 472.164888 88.387697 
L 472.62697 97.575153 
L 473.089051 83.885313 
L 473.551132 74.640676 
L 474.475294 50.959301 
L 474.937376 34.70304 
L 475.399457 33.70816 
L 475.861538 37.382692 
L 476.7857 74.31052 
L 477.247782 73.632412 
L 477.709863 84.4417 
L 478.171944 104.04399 
L 479.096106 108.356672 
L 479.558187 118.714288 
L 480.020269 107.321649 
L 480.944431 93.708045 
L 481.406512 101.092718 
L 481.868593 98.276185 
L 482.792756 75.340176 
L 483.254837 73.598835 
L 483.716918 82.981174 
L 484.178999 75.422041 
L 484.641081 60.946917 
L 485.103162 59.647425 
L 485.565243 60.320292 
L 486.027324 67.425523 
L 486.489405 65.339639 
L 486.951486 72.403029 
L 487.413568 70.829125 
L 487.875649 56.188455 
L 488.33773 61.761297 
L 489.261892 84.173277 
L 489.723974 79.845294 
L 490.186055 85.710991 
L 490.648136 98.125354 
L 491.110217 100.43767 
L 491.572298 93.959537 
L 492.03438 74.665381 
L 492.496461 75.228529 
L 492.958542 75.230744 
L 493.420623 48.640455 
L 493.882704 63.479878 
L 494.344785 65.389432 
L 494.806867 81.626535 
L 495.268948 82.180758 
L 495.731029 96.645954 
L 496.19311 97.979886 
L 496.655191 89.61949 
L 497.117273 91.118695 
L 497.579354 93.451717 
L 498.041435 101.995127 
L 498.503516 102.897062 
L 498.965597 85.974465 
L 499.427678 94.39513 
L 499.88976 95.657229 
L 500.351841 104.356297 
L 500.813922 96.148364 
L 501.276003 101.510312 
L 501.738084 95.787316 
L 502.200166 98.342462 
L 502.662247 110.090842 
L 503.124328 106.702291 
L 503.586409 94.571959 
L 504.510572 80.05927 
L 504.972653 84.510699 
L 505.434734 90.686932 
L 506.358896 73.705295 
L 506.820977 69.956162 
L 507.283059 62.689144 
L 507.74514 60.926153 
L 508.207221 62.852555 
L 509.131383 51.038867 
L 509.593465 67.113516 
L 510.055546 71.534864 
L 510.517627 84.680642 
L 510.979708 77.387398 
L 511.441789 72.546469 
L 511.903871 74.303957 
L 512.365952 71.343874 
L 512.828033 62.324034 
L 513.290114 60.345524 
L 513.752195 68.456322 
L 514.214276 70.216389 
L 514.676358 73.300834 
L 515.138439 102.056483 
L 515.60052 74.682161 
L 516.524682 48.989232 
L 516.986764 43.494097 
L 517.910926 21.075423 
L 518.373007 30.241362 
L 518.835088 43.45374 
L 519.759251 78.94269 
L 520.221332 92.50639 
L 520.683413 115.530095 
L 521.145494 94.008332 
L 521.607575 103.423956 
L 522.069657 106.690859 
L 522.531738 97.318428 
L 522.993819 91.102327 
L 523.4559 89.867667 
L 523.917981 99.64412 
L 524.380063 104.865704 
L 525.304225 77.51957 
L 525.766306 59.570907 
L 526.228387 59.929174 
L 526.690469 58.827624 
L 527.15255 60.842085 
L 527.614631 72.241647 
L 528.076712 79.854651 
L 528.538793 80.605844 
L 529.000874 75.681592 
L 529.925037 111.906088 
L 530.387118 98.014278 
L 531.31128 81.408726 
L 531.773362 76.425852 
L 532.235443 73.501146 
L 532.697524 59.745041 
L 533.159605 78.687838 
L 533.621686 77.172794 
L 534.083768 83.510046 
L 534.545849 95.401843 
L 535.00793 115.807398 
L 535.470011 111.282405 
L 535.932092 108.589295 
L 536.394173 119.646226 
L 536.856255 103.831983 
L 537.318336 92.338157 
L 537.780417 87.770779 
L 538.242498 75.429669 
L 538.704579 82.634708 
L 539.166661 67.20356 
L 539.628742 57.433054 
L 540.090823 58.561393 
L 540.552904 43.260216 
L 541.014985 41.680253 
L 541.477067 65.560625 
L 541.939148 73.280482 
L 542.401229 56.30171 
L 542.86331 56.792555 
L 543.325391 59.809081 
L 543.787472 60.025152 
L 544.249554 60.088856 
L 544.711635 42.306696 
L 545.173716 33.76287 
L 545.635797 57.135033 
L 546.097878 63.995133 
L 546.55996 66.156688 
L 547.022041 78.577401 
L 547.946203 67.674474 
L 548.408284 57.236346 
L 548.870366 56.838342 
L 549.332447 58.216026 
L 549.794528 63.251602 
L 550.256609 62.098368 
L 550.71869 73.254678 
L 551.180771 81.114288 
L 551.642853 75.061607 
L 552.104934 67.33512 
L 553.029096 87.327478 
L 553.491177 69.831098 
L 553.953259 74.231416 
L 554.41534 74.103051 
L 554.877421 84.72396 
L 555.339502 84.63539 
L 555.801583 88.066648 
L 556.263665 88.983687 
L 556.725746 74.774454 
L 557.187827 70.625176 
L 557.649908 62.629404 
L 558.111989 63.672094 
L 558.57407 59.958239 
L 559.036152 46.936811 
L 559.498233 63.508743 
L 559.960314 67.407506 
L 560.422395 91.554096 
L 560.884476 94.541588 
L 561.346558 111.385818 
L 561.808639 116.064331 
L 562.27072 110.049453 
L 562.732801 110.215879 
L 563.194882 92.286551 
L 563.656964 97.641855 
L 564.119045 97.586369 
L 564.581126 104.328367 
L 565.043207 105.828214 
L 565.505288 104.689727 
L 565.967369 100.730843 
L 566.429451 101.568296 
L 566.891532 104.70318 
L 567.353613 96.122507 
L 567.815694 92.850333 
L 568.277775 88.369593 
L 568.739857 88.564042 
L 569.201938 98.401476 
L 569.664019 104.615337 
L 570.1261 106.838903 
L 570.588181 102.313064 
L 571.050263 90.299088 
L 571.512344 87.83435 
L 572.436506 100.325757 
L 572.898587 89.836657 
L 573.360668 92.472895 
L 574.284831 100.969255 
L 575.671074 116.544475 
L 575.671074 116.544475 
" style="fill:none;stroke:#000000;stroke-linecap:square;stroke-width:1.5;"/>
   </g>
   <g id="patch_8">
    <path d="M 333.563636 240.061875 
L 333.563636 22.621875 
" style="fill:none;stroke:#000000;stroke-linecap:square;stroke-linejoin:miter;stroke-width:0.8;"/>
   </g>
   <g id="patch_9">
    <path d="M 587.2 240.061875 
L 587.2 22.621875 
" style="fill:none;stroke:#000000;stroke-linecap:square;stroke-linejoin:miter;stroke-width:0.8;"/>
   </g>
   <g id="patch_10">
    <path d="M 333.563636 240.061875 
L 587.2 240.061875 
" style="fill:none;stroke:#000000;stroke-linecap:square;stroke-linejoin:miter;stroke-width:0.8;"/>
   </g>
   <g id="patch_11">
    <path d="M 333.563636 22.621875 
L 587.2 22.621875 
" style="fill:none;stroke:#000000;stroke-linecap:square;stroke-linejoin:miter;stroke-width:0.8;"/>
   </g>
   <g id="text_30">
    <!-- 评分器损失 -->
    <g transform="translate(430.381818 16.621875)scale(0.12 -0.12)">
     <defs>
      <path d="M 750 4925 
L 825 4975 
Q 1150 4725 1375 4500 
Q 1600 4275 1587 4087 
Q 1575 3900 1487 3812 
Q 1400 3725 1375 3725 
Q 1275 3725 1200 4025 
Q 1100 4425 750 4925 
z
M 225 2900 
L 1250 2900 
L 1425 3175 
L 1800 2875 
L 1625 2675 
L 1625 275 
L 2875 1450 
L 2950 1375 
Q 2550 900 2125 425 
Q 1700 -75 1500 -400 
L 1125 -50 
Q 1275 75 1275 325 
L 1275 2750 
L 925 2750 
Q 725 2750 450 2675 
L 225 2900 
z
M 4250 2050 
Q 4250 150 4275 -475 
L 3875 -625 
Q 3900 175 3900 2050 
L 2750 2050 
Q 2550 2050 2275 1975 
L 2050 2200 
L 3900 2200 
L 3900 4500 
L 3050 4500 
Q 2850 4500 2575 4425 
L 2350 4650 
L 5125 4650 
L 5475 4950 
L 5925 4500 
L 4250 4500 
L 4250 2200 
L 5300 2200 
L 5675 2575 
L 6150 2050 
L 4250 2050 
z
M 2475 4025 
L 2550 4075 
Q 3375 3275 3425 3112 
Q 3475 2950 3475 2875 
Q 3475 2700 3387 2587 
Q 3300 2475 3275 2475 
Q 3200 2475 3150 2700 
Q 3050 3000 2900 3300 
Q 2750 3600 2475 4025 
z
M 5325 4175 
L 5775 3825 
L 5600 3725 
Q 5000 2875 4575 2425 
L 4500 2475 
Q 5050 3325 5325 4175 
z
" id="SimSun-8bc4" transform="scale(0.015625)"/>
      <path d="M 2350 5050 
L 2850 4675 
L 2625 4550 
Q 2200 3750 1687 3125 
Q 1175 2500 375 2025 
L 325 2100 
Q 975 2625 1475 3337 
Q 1975 4050 2350 5050 
z
M 4100 4975 
L 3900 4850 
Q 4175 3850 4800 3300 
Q 5425 2750 6125 2625 
L 6125 2550 
Q 5750 2500 5600 2225 
Q 4775 2675 4287 3425 
Q 3800 4175 3625 5175 
L 4100 4975 
z
M 1375 2625 
L 4225 2625 
L 4475 2875 
L 4825 2525 
L 4625 2375 
Q 4575 400 4375 -12 
Q 4175 -425 3675 -600 
Q 3600 -200 2975 -25 
L 2975 75 
Q 3600 -25 3787 -12 
Q 3975 0 4075 275 
Q 4175 550 4275 2475 
L 2975 2475 
Q 2825 1400 2375 662 
Q 1925 -75 650 -625 
L 600 -525 
Q 1725 50 2112 837 
Q 2500 1625 2575 2475 
L 1800 2475 
L 1575 2425 
L 1375 2625 
z
" id="SimSun-5206" transform="scale(0.015625)"/>
     </defs>
     <use xlink:href="#SimSun-8bc4"/>
     <use x="100" xlink:href="#SimSun-5206"/>
     <use x="200" xlink:href="#SimSun-5668"/>
     <use x="300" xlink:href="#SimSun-635f"/>
     <use x="400" xlink:href="#SimSun-5931"/>
    </g>
   </g>
  </g>
 </g>
 <defs>
  <clipPath id="p6801a11aee">
   <rect height="217.44" width="253.636364" x="29.2" y="22.621875"/>
  </clipPath>
  <clipPath id="pf170b07407">
   <rect height="217.44" width="253.636364" x="333.563636" y="22.621875"/>
  </clipPath>
 </defs>
</svg>
